<mxfile host="app.diagrams.net" modified="2021-08-24T20:40:06.381Z" agent="5.0 (Macintosh; Intel Mac OS X 10_15_7) AppleWebKit/537.36 (KHTML, like Gecko) Chrome/92.0.4515.159 Safari/537.36" etag="x_NSxwjCeNr1rVH51LSQ" version="14.9.9" type="github" pages="3">
  <diagram id="3tJ1lPTpHGvpmsX1h1cu" name="Page-1">
    <mxGraphModel dx="2719" dy="1178" grid="1" gridSize="10" guides="1" tooltips="1" connect="1" arrows="1" fold="1" page="1" pageScale="1" pageWidth="827" pageHeight="1169" math="0" shadow="0">
      <root>
        <mxCell id="0" />
        <mxCell id="1" parent="0" />
        <mxCell id="zX1ZrdeTiQURhiI3ejYb-1" value="" style="group;fillColor=#ffffff;strokeWidth=5;strokeColor=#00331A;" vertex="1" connectable="0" parent="1">
          <mxGeometry x="-294" y="50" width="1171" height="750" as="geometry" />
        </mxCell>
        <mxCell id="zX1ZrdeTiQURhiI3ejYb-27" value="" style="shape=partialRectangle;whiteSpace=wrap;html=1;bottom=0;right=0;fillColor=none;strokeColor=#000000;strokeWidth=4;opacity=0;rotation=90;" vertex="1" parent="zX1ZrdeTiQURhiI3ejYb-1">
          <mxGeometry x="-29.999999999999996" y="390" width="120" height="60" as="geometry" />
        </mxCell>
        <mxCell id="zX1ZrdeTiQURhiI3ejYb-13" value="" style="group" vertex="1" connectable="0" parent="zX1ZrdeTiQURhiI3ejYb-1">
          <mxGeometry x="617" y="309" width="212" height="331.5" as="geometry" />
        </mxCell>
        <mxCell id="zX1ZrdeTiQURhiI3ejYb-17" value="" style="endArrow=classic;html=1;" edge="1" parent="zX1ZrdeTiQURhiI3ejYb-13">
          <mxGeometry width="50" height="50" relative="1" as="geometry">
            <mxPoint x="112.00191238581647" y="113.02999999999997" as="sourcePoint" />
            <mxPoint x="111.7" y="120" as="targetPoint" />
          </mxGeometry>
        </mxCell>
        <mxCell id="zX1ZrdeTiQURhiI3ejYb-18" value="&lt;b style=&quot;color: rgb(0 , 102 , 0)&quot;&gt;Expansion of Rural Development Services&lt;/b&gt;" style="strokeWidth=2;html=1;shape=mxgraph.flowchart.start_2;whiteSpace=wrap;fontSize=13;fillColor=#d5e8d4;strokeColor=#82b366;" vertex="1" parent="zX1ZrdeTiQURhiI3ejYb-13">
          <mxGeometry x="49.5" width="120" height="120" as="geometry" />
        </mxCell>
        <mxCell id="zX1ZrdeTiQURhiI3ejYb-48" value="" style="endArrow=classic;html=1;fontSize=13;exitX=0.48;exitY=0.518;exitDx=0;exitDy=0;exitPerimeter=0;" edge="1" parent="zX1ZrdeTiQURhiI3ejYb-13" source="zX1ZrdeTiQURhiI3ejYb-43">
          <mxGeometry width="50" height="50" relative="1" as="geometry">
            <mxPoint x="105.5800000000001" y="213.25" as="sourcePoint" />
            <mxPoint x="105.41000000000003" y="118.25" as="targetPoint" />
          </mxGeometry>
        </mxCell>
        <mxCell id="ekGAwTpq_k20KozUpaXf-1" value="" style="group" vertex="1" connectable="0" parent="zX1ZrdeTiQURhiI3ejYb-1">
          <mxGeometry x="15" width="1135" height="729" as="geometry" />
        </mxCell>
        <mxCell id="zX1ZrdeTiQURhiI3ejYb-2" value="&lt;font color=&quot;#0066cc&quot; size=&quot;1&quot;&gt;&lt;b style=&quot;font-size: 15px&quot;&gt;Component 1: Integrated Investments for Water Security&lt;/b&gt;&lt;/font&gt;" style="rounded=1;arcSize=10;whiteSpace=wrap;html=1;align=center;fontSize=13;fillColor=#dae8fc;strokeColor=#000066;" vertex="1" parent="ekGAwTpq_k20KozUpaXf-1">
          <mxGeometry x="125" y="138" width="210" height="75" as="geometry" />
        </mxCell>
        <mxCell id="zX1ZrdeTiQURhiI3ejYb-3" value="&lt;font color=&quot;#006600&quot; size=&quot;1&quot;&gt;&lt;b style=&quot;font-size: 15px&quot;&gt;Component 2: Expansion of Integrated Water Services&lt;/b&gt;&lt;/font&gt;" style="rounded=1;arcSize=10;whiteSpace=wrap;html=1;align=center;fontSize=13;fillColor=#d5e8d4;strokeColor=#00331A;" vertex="1" parent="ekGAwTpq_k20KozUpaXf-1">
          <mxGeometry x="735" y="139" width="210" height="75" as="geometry" />
        </mxCell>
        <mxCell id="zX1ZrdeTiQURhiI3ejYb-4" value="" style="strokeWidth=2;html=1;shape=mxgraph.flowchart.annotation_2;align=left;labelPosition=right;pointerEvents=1;fontSize=13;rotation=90;strokeColor=#000066;" vertex="1" parent="ekGAwTpq_k20KozUpaXf-1">
          <mxGeometry x="508.75" y="-183" width="50" height="592.5" as="geometry" />
        </mxCell>
        <mxCell id="zX1ZrdeTiQURhiI3ejYb-5" value="&lt;font color=&quot;#006600&quot;&gt;&lt;b&gt;Expansion of Public sanitation infrastructure &amp;amp; Behavioral Communication&amp;nbsp;&lt;/b&gt;&lt;/font&gt;" style="strokeWidth=2;html=1;shape=mxgraph.flowchart.start_2;whiteSpace=wrap;fontSize=13;fillColor=#d5e8d4;strokeColor=#82b366;" vertex="1" parent="ekGAwTpq_k20KozUpaXf-1">
          <mxGeometry x="957.5" y="310" width="120" height="120" as="geometry" />
        </mxCell>
        <mxCell id="zX1ZrdeTiQURhiI3ejYb-10" value="&lt;font color=&quot;#994c00&quot;&gt;M Health &amp;amp;&amp;nbsp;&lt;br&gt;&amp;nbsp;M Education&lt;/font&gt;" style="strokeWidth=2;html=1;shape=mxgraph.flowchart.decision;whiteSpace=wrap;fontSize=13;dashed=1;strokeColor=#FFB570;gradientColor=#FFE4C9;" vertex="1" parent="ekGAwTpq_k20KozUpaXf-1">
          <mxGeometry x="1050" y="531" width="85" height="100" as="geometry" />
        </mxCell>
        <mxCell id="zX1ZrdeTiQURhiI3ejYb-12" value="&lt;font color=&quot;#994c00&quot;&gt;M Gender Affairs&amp;nbsp;&amp;nbsp;&lt;/font&gt;" style="strokeWidth=2;html=1;shape=mxgraph.flowchart.decision;whiteSpace=wrap;fontSize=13;dashed=1;strokeColor=#d79b00;fillColor=#ffe6cc;gradientColor=#ffffff;" vertex="1" parent="ekGAwTpq_k20KozUpaXf-1">
          <mxGeometry x="1024" y="462" width="71" height="105" as="geometry" />
        </mxCell>
        <mxCell id="zX1ZrdeTiQURhiI3ejYb-20" value="" style="endArrow=classic;html=1;exitX=0;exitY=1;exitDx=0;exitDy=0;strokeWidth=3;strokeColor=#6c8ebf;fillColor=#dae8fc;entryX=0.667;entryY=-0.05;entryDx=0;entryDy=0;entryPerimeter=0;" edge="1" parent="ekGAwTpq_k20KozUpaXf-1">
          <mxGeometry width="50" height="50" relative="1" as="geometry">
            <mxPoint x="126" y="212" as="sourcePoint" />
            <mxPoint x="81.03999999999996" y="303" as="targetPoint" />
          </mxGeometry>
        </mxCell>
        <mxCell id="zX1ZrdeTiQURhiI3ejYb-21" value="" style="endArrow=classic;html=1;exitX=0.462;exitY=1.049;exitDx=0;exitDy=0;exitPerimeter=0;strokeWidth=3;strokeColor=#6c8ebf;fillColor=#dae8fc;" edge="1" parent="ekGAwTpq_k20KozUpaXf-1">
          <mxGeometry width="50" height="50" relative="1" as="geometry">
            <mxPoint x="227.01999999999998" y="216.67499999999995" as="sourcePoint" />
            <mxPoint x="230" y="315" as="targetPoint" />
          </mxGeometry>
        </mxCell>
        <mxCell id="zX1ZrdeTiQURhiI3ejYb-22" value="" style="endArrow=classic;html=1;exitX=1;exitY=1;exitDx=0;exitDy=0;strokeWidth=3;fillColor=#dae8fc;strokeColor=#6c8ebf;" edge="1" parent="ekGAwTpq_k20KozUpaXf-1">
          <mxGeometry width="50" height="50" relative="1" as="geometry">
            <mxPoint x="329" y="212" as="sourcePoint" />
            <mxPoint x="368" y="309" as="targetPoint" />
          </mxGeometry>
        </mxCell>
        <mxCell id="zX1ZrdeTiQURhiI3ejYb-24" value="" style="endArrow=classic;html=1;strokeWidth=3;strokeColor=#82b366;fillColor=#d5e8d4;" edge="1" parent="ekGAwTpq_k20KozUpaXf-1">
          <mxGeometry width="50" height="50" relative="1" as="geometry">
            <mxPoint x="945" y="211.3" as="sourcePoint" />
            <mxPoint x="995" y="300" as="targetPoint" />
          </mxGeometry>
        </mxCell>
        <mxCell id="zX1ZrdeTiQURhiI3ejYb-25" value="" style="endArrow=classic;html=1;strokeWidth=3;strokeColor=#82b366;fillColor=#d5e8d4;" edge="1" parent="ekGAwTpq_k20KozUpaXf-1">
          <mxGeometry width="50" height="50" relative="1" as="geometry">
            <mxPoint x="740" y="214" as="sourcePoint" />
            <mxPoint x="705" y="300" as="targetPoint" />
          </mxGeometry>
        </mxCell>
        <mxCell id="zX1ZrdeTiQURhiI3ejYb-26" value="&lt;font color=&quot;#00331a&quot; style=&quot;font-size: 26px&quot;&gt;&lt;b&gt;Multi-sectoral coordination and community participation ensured by local-level&amp;nbsp; Water Platform institutions - (AUE, CLE and Sub-basin Agency)&lt;/b&gt;&lt;/font&gt;" style="rounded=1;arcSize=10;whiteSpace=wrap;html=1;align=center;strokeWidth=1;fillColor=#cdeb8b;strokeColor=#36393d;" vertex="1" parent="ekGAwTpq_k20KozUpaXf-1">
          <mxGeometry x="55" y="669" width="990" height="60" as="geometry" />
        </mxCell>
        <mxCell id="zX1ZrdeTiQURhiI3ejYb-28" value="&lt;font style=&quot;font-size: 27px&quot; color=&quot;#000066&quot;&gt;&lt;b&gt;&amp;nbsp; PMU hosted under the Office of the Prime Minister&lt;br&gt;&amp;nbsp; Niger IWSP&lt;/b&gt;&lt;/font&gt;" style="rounded=1;whiteSpace=wrap;html=1;fontSize=10;strokeWidth=1;fillColor=#cce5ff;strokeColor=#000066;" vertex="1" parent="ekGAwTpq_k20KozUpaXf-1">
          <mxGeometry x="270" width="705" height="90" as="geometry" />
        </mxCell>
        <mxCell id="zX1ZrdeTiQURhiI3ejYb-29" value="" style="endArrow=classic;html=1;fontSize=13;exitX=0.5;exitY=0;exitDx=0;exitDy=0;exitPerimeter=0;" edge="1" parent="ekGAwTpq_k20KozUpaXf-1">
          <mxGeometry width="50" height="50" relative="1" as="geometry">
            <mxPoint x="227" y="539.5" as="sourcePoint" />
            <mxPoint x="227.9999999999999" y="436" as="targetPoint" />
          </mxGeometry>
        </mxCell>
        <mxCell id="zX1ZrdeTiQURhiI3ejYb-30" value="&lt;b&gt;&lt;font color=&quot;#0066cc&quot;&gt;Mobilisation of Water Resources&lt;/font&gt;&lt;/b&gt;" style="strokeWidth=2;html=1;shape=mxgraph.flowchart.start_2;whiteSpace=wrap;fontSize=13;fillColor=#cce5ff;strokeColor=#A9C4EB;" vertex="1" parent="ekGAwTpq_k20KozUpaXf-1">
          <mxGeometry x="313.75" y="319" width="120" height="120" as="geometry" />
        </mxCell>
        <mxCell id="zX1ZrdeTiQURhiI3ejYb-31" value="&lt;b style=&quot;color: rgb(0 , 102 , 204)&quot;&gt;Management of Water Resources&amp;amp; Climate Risks&lt;/b&gt;" style="strokeWidth=2;html=1;shape=mxgraph.flowchart.start_2;whiteSpace=wrap;fontSize=13;fillColor=#CCE5FF;strokeColor=#A9C4EB;" vertex="1" parent="ekGAwTpq_k20KozUpaXf-1">
          <mxGeometry y="310" width="120" height="120" as="geometry" />
        </mxCell>
        <mxCell id="zX1ZrdeTiQURhiI3ejYb-32" value="&lt;b&gt;&lt;font color=&quot;#0066cc&quot;&gt;Resotration of Watershed Environments&lt;/font&gt;&lt;/b&gt;" style="strokeWidth=2;html=1;shape=mxgraph.flowchart.start_2;whiteSpace=wrap;fontSize=13;fillColor=#cce5ff;strokeColor=#A9C4EB;" vertex="1" parent="ekGAwTpq_k20KozUpaXf-1">
          <mxGeometry x="168" y="315" width="120" height="120" as="geometry" />
        </mxCell>
        <mxCell id="zX1ZrdeTiQURhiI3ejYb-39" value="" style="strokeWidth=1;html=1;shape=mxgraph.flowchart.annotation_2;align=left;labelPosition=right;pointerEvents=1;fontSize=13;rotation=90;" vertex="1" parent="ekGAwTpq_k20KozUpaXf-1">
          <mxGeometry x="814" y="450" width="113" height="70.43" as="geometry" />
        </mxCell>
        <mxCell id="zX1ZrdeTiQURhiI3ejYb-14" value="&lt;b&gt;&lt;font color=&quot;#994c00&quot;&gt;MAG&lt;/font&gt;&lt;/b&gt;" style="strokeWidth=2;html=1;shape=mxgraph.flowchart.decision;whiteSpace=wrap;fontSize=13;strokeColor=#d79b00;fillColor=#ffe6cc;" vertex="1" parent="ekGAwTpq_k20KozUpaXf-1">
          <mxGeometry x="711" y="542.5" width="66" height="77" as="geometry" />
        </mxCell>
        <mxCell id="zX1ZrdeTiQURhiI3ejYb-40" value="&lt;b&gt;&lt;font color=&quot;#994c00&quot;&gt;MEL&lt;/font&gt;&lt;/b&gt;" style="strokeWidth=2;html=1;shape=mxgraph.flowchart.decision;whiteSpace=wrap;fontSize=13;strokeColor=#d79b00;fillColor=#ffe6cc;" vertex="1" parent="ekGAwTpq_k20KozUpaXf-1">
          <mxGeometry x="637" y="541.5" width="70" height="77" as="geometry" />
        </mxCell>
        <mxCell id="zX1ZrdeTiQURhiI3ejYb-43" value="" style="strokeWidth=1;html=1;shape=mxgraph.flowchart.annotation_2;align=left;labelPosition=right;pointerEvents=1;fontSize=13;rotation=90;" vertex="1" parent="ekGAwTpq_k20KozUpaXf-1">
          <mxGeometry x="651.5" y="450" width="113" height="70.43" as="geometry" />
        </mxCell>
        <mxCell id="zX1ZrdeTiQURhiI3ejYb-44" value="&lt;b&gt;&lt;font color=&quot;#994c00&quot;&gt;MHA&lt;/font&gt;&lt;/b&gt;" style="strokeWidth=2;html=1;shape=mxgraph.flowchart.decision;whiteSpace=wrap;fontSize=13;strokeColor=#d79b00;fillColor=#ffe6cc;" vertex="1" parent="ekGAwTpq_k20KozUpaXf-1">
          <mxGeometry x="989" y="538.5" width="66" height="77" as="geometry" />
        </mxCell>
        <mxCell id="zX1ZrdeTiQURhiI3ejYb-45" value="&lt;b&gt;&lt;font color=&quot;#994c00&quot;&gt;MAG&lt;/font&gt;&lt;/b&gt;" style="strokeWidth=2;html=1;shape=mxgraph.flowchart.decision;whiteSpace=wrap;fontSize=13;strokeColor=#d79b00;fillColor=#ffe6cc;" vertex="1" parent="ekGAwTpq_k20KozUpaXf-1">
          <mxGeometry x="343.75" y="539.5" width="70" height="77" as="geometry" />
        </mxCell>
        <mxCell id="zX1ZrdeTiQURhiI3ejYb-46" value="&lt;b&gt;&lt;font color=&quot;#994c00&quot;&gt;ME/LCD&lt;/font&gt;&lt;/b&gt;" style="strokeWidth=2;html=1;shape=mxgraph.flowchart.decision;whiteSpace=wrap;fontSize=13;strokeColor=#d79b00;fillColor=#ffe6cc;" vertex="1" parent="ekGAwTpq_k20KozUpaXf-1">
          <mxGeometry x="192" y="539.5" width="70" height="77" as="geometry" />
        </mxCell>
        <mxCell id="zX1ZrdeTiQURhiI3ejYb-49" value="" style="endArrow=classic;html=1;fontSize=13;" edge="1" parent="ekGAwTpq_k20KozUpaXf-1">
          <mxGeometry width="50" height="50" relative="1" as="geometry">
            <mxPoint x="870" y="480" as="sourcePoint" />
            <mxPoint x="869.91" y="430" as="targetPoint" />
          </mxGeometry>
        </mxCell>
        <mxCell id="zX1ZrdeTiQURhiI3ejYb-54" value="" style="endArrow=classic;html=1;strokeWidth=3;strokeColor=#82b366;fillColor=#d5e8d4;" edge="1" parent="ekGAwTpq_k20KozUpaXf-1">
          <mxGeometry width="50" height="50" relative="1" as="geometry">
            <mxPoint x="860" y="214" as="sourcePoint" />
            <mxPoint x="860" y="310" as="targetPoint" />
          </mxGeometry>
        </mxCell>
        <mxCell id="zX1ZrdeTiQURhiI3ejYb-33" value="" style="strokeWidth=2;html=1;shape=mxgraph.flowchart.annotation_2;align=left;labelPosition=right;pointerEvents=1;fontSize=13;rotation=-90;fillColor=#ffff88;strokeColor=#8C7738;" vertex="1" parent="1">
          <mxGeometry x="239.93" y="210.87" width="49.99" height="962.22" as="geometry" />
        </mxCell>
        <mxCell id="zX1ZrdeTiQURhiI3ejYb-34" value="&lt;b style=&quot;color: rgb(0 , 102 , 0)&quot;&gt;Expansion of Water&amp;nbsp; Services&amp;nbsp;&lt;/b&gt;" style="strokeWidth=2;html=1;shape=mxgraph.flowchart.start_2;whiteSpace=wrap;fontSize=13;fillColor=#d5e8d4;strokeColor=#82b366;" vertex="1" parent="1">
          <mxGeometry x="528.5" y="364" width="120" height="120" as="geometry" />
        </mxCell>
        <mxCell id="zX1ZrdeTiQURhiI3ejYb-35" value="" style="endArrow=classic;html=1;fontSize=13;exitX=0.5;exitY=0;exitDx=0;exitDy=0;exitPerimeter=0;" edge="1" parent="1" source="zX1ZrdeTiQURhiI3ejYb-44">
          <mxGeometry width="50" height="50" relative="1" as="geometry">
            <mxPoint x="745.67" y="579" as="sourcePoint" />
            <mxPoint x="745" y="480" as="targetPoint" />
          </mxGeometry>
        </mxCell>
        <mxCell id="zX1ZrdeTiQURhiI3ejYb-36" value="" style="endArrow=classic;html=1;fontSize=13;exitX=0.5;exitY=0;exitDx=0;exitDy=0;exitPerimeter=0;" edge="1" parent="1" source="zX1ZrdeTiQURhiI3ejYb-45">
          <mxGeometry width="50" height="50" relative="1" as="geometry">
            <mxPoint x="100.66999999999996" y="582" as="sourcePoint" />
            <mxPoint x="100.49999999999989" y="487" as="targetPoint" />
            <Array as="points" />
          </mxGeometry>
        </mxCell>
        <mxCell id="zX1ZrdeTiQURhiI3ejYb-37" value="" style="endArrow=classic;html=1;fontSize=13;exitX=0.5;exitY=0;exitDx=0;exitDy=0;exitPerimeter=0;" edge="1" parent="1" source="zX1ZrdeTiQURhiI3ejYb-52">
          <mxGeometry width="50" height="50" relative="1" as="geometry">
            <mxPoint x="-215" y="580" as="sourcePoint" />
            <mxPoint x="-216" y="479" as="targetPoint" />
          </mxGeometry>
        </mxCell>
        <mxCell id="zX1ZrdeTiQURhiI3ejYb-41" value="&lt;b&gt;&lt;font color=&quot;#994c00&quot;&gt;MHA&lt;/font&gt;&lt;/b&gt;" style="strokeWidth=2;html=1;shape=mxgraph.flowchart.decision;whiteSpace=wrap;fontSize=13;strokeColor=#d79b00;fillColor=#ffe6cc;" vertex="1" parent="1">
          <mxGeometry x="522.5" y="593" width="66" height="77" as="geometry" />
        </mxCell>
        <mxCell id="zX1ZrdeTiQURhiI3ejYb-42" value="&lt;b&gt;&lt;font color=&quot;#994c00&quot;&gt;SPEN&lt;/font&gt;&lt;/b&gt;" style="strokeWidth=2;html=1;shape=mxgraph.flowchart.decision;whiteSpace=wrap;fontSize=13;strokeColor=#d79b00;fillColor=#ffe6cc;" vertex="1" parent="1">
          <mxGeometry x="594" y="593" width="66" height="77" as="geometry" />
        </mxCell>
        <mxCell id="zX1ZrdeTiQURhiI3ejYb-52" value="&lt;b&gt;&lt;font color=&quot;#994c00&quot;&gt;MHA&lt;/font&gt;&lt;/b&gt;" style="strokeWidth=2;html=1;shape=mxgraph.flowchart.decision;whiteSpace=wrap;fontSize=13;strokeColor=#d79b00;fillColor=#ffe6cc;" vertex="1" parent="1">
          <mxGeometry x="-250" y="585" width="70" height="77" as="geometry" />
        </mxCell>
      </root>
    </mxGraphModel>
  </diagram>
  <diagram name="Page-2" id="1BuRXxEulkolO_1qm-Zt">
    <mxGraphModel dx="1892" dy="1292" grid="1" gridSize="10" guides="1" tooltips="1" connect="1" arrows="1" fold="1" page="1" pageScale="1" pageWidth="1169" pageHeight="827" math="0" shadow="0">
      <root>
        <mxCell id="Lm2XPd6gxx7g7ctwFzRC-0" />
        <mxCell id="Lm2XPd6gxx7g7ctwFzRC-1" parent="Lm2XPd6gxx7g7ctwFzRC-0" />
        <mxCell id="Lm2XPd6gxx7g7ctwFzRC-2" value="1er " style="group;fillColor=#ffffff;strokeWidth=3;strokeColor=#000066;" parent="Lm2XPd6gxx7g7ctwFzRC-1" vertex="1" connectable="0">
          <mxGeometry x="30" y="29" width="1180" height="790" as="geometry" />
        </mxCell>
        <mxCell id="Lm2XPd6gxx7g7ctwFzRC-3" value="&lt;font color=&quot;#0066cc&quot;&gt;&lt;b&gt;Composante 1: Investissements intégrés pour la sécurité en eau&lt;/b&gt;&lt;/font&gt;" style="rounded=1;arcSize=10;whiteSpace=wrap;html=1;align=center;fontSize=13;fillColor=#dae8fc;strokeColor=#000066;" parent="Lm2XPd6gxx7g7ctwFzRC-2" vertex="1">
          <mxGeometry x="141.07600341588386" y="145.36" width="211.6140051238258" height="79.00000000000001" as="geometry" />
        </mxCell>
        <mxCell id="Lm2XPd6gxx7g7ctwFzRC-4" value="&lt;font color=&quot;#006600&quot;&gt;&lt;b&gt;Composante 2: Expansion des services intégrés liés à l&#39;eau&amp;nbsp;&lt;/b&gt;&lt;/font&gt;" style="rounded=1;arcSize=10;whiteSpace=wrap;html=1;align=center;fontSize=13;fillColor=#d5e8d4;strokeColor=#00331A;" parent="Lm2XPd6gxx7g7ctwFzRC-2" vertex="1">
          <mxGeometry x="755.7643040136636" y="146.41333333333336" width="211.6140051238258" height="79.00000000000001" as="geometry" />
        </mxCell>
        <mxCell id="Lm2XPd6gxx7g7ctwFzRC-5" value="" style="strokeWidth=3;html=1;shape=mxgraph.flowchart.annotation_2;align=left;labelPosition=right;pointerEvents=1;fontSize=13;rotation=90;fillColor=#ffcc99;strokeColor=#000066;" parent="Lm2XPd6gxx7g7ctwFzRC-2" vertex="1">
          <mxGeometry x="527.7754056362083" y="-192.76000000000002" width="50.38428693424424" height="624.1" as="geometry" />
        </mxCell>
        <mxCell id="Lm2XPd6gxx7g7ctwFzRC-6" value="&lt;font color=&quot;#0066cc&quot;&gt;&lt;b&gt;Gestion des ressources en eau et des risques climatiques&lt;/b&gt;&lt;/font&gt;" style="strokeWidth=2;html=1;shape=mxgraph.flowchart.start_2;whiteSpace=wrap;fontSize=13;fillColor=#dae8fc;strokeColor=#6c8ebf;" parent="Lm2XPd6gxx7g7ctwFzRC-2" vertex="1">
          <mxGeometry x="15.115286080273275" y="342.33333333333337" width="100.76857386848847" height="105.33333333333334" as="geometry" />
        </mxCell>
        <mxCell id="Lm2XPd6gxx7g7ctwFzRC-7" value="&lt;b&gt;&lt;font color=&quot;#0066cc&quot;&gt;Restauration des bassins versants&lt;/font&gt;&lt;/b&gt;" style="strokeWidth=2;html=1;shape=mxgraph.flowchart.start_2;whiteSpace=wrap;fontSize=13;fillColor=#dae8fc;strokeColor=#6c8ebf;" parent="Lm2XPd6gxx7g7ctwFzRC-2" vertex="1">
          <mxGeometry x="181.38343296327926" y="336.0133333333334" width="100.76857386848847" height="105.33333333333334" as="geometry" />
        </mxCell>
        <mxCell id="Lm2XPd6gxx7g7ctwFzRC-8" value="&lt;b&gt;&lt;font color=&quot;#0066cc&quot;&gt;Mobilisation des ressources en eau&lt;/font&gt;&lt;/b&gt;" style="strokeWidth=2;html=1;shape=mxgraph.flowchart.start_2;whiteSpace=wrap;fontSize=13;fillColor=#dae8fc;strokeColor=#6c8ebf;" parent="Lm2XPd6gxx7g7ctwFzRC-2" vertex="1">
          <mxGeometry x="332.53629376601197" y="342.33333333333337" width="100.76857386848847" height="105.33333333333334" as="geometry" />
        </mxCell>
        <mxCell id="Lm2XPd6gxx7g7ctwFzRC-9" value="&lt;font color=&quot;#006600&quot;&gt;&lt;b&gt;Expansion de la fourniture en eau potable&lt;/b&gt;&lt;/font&gt;" style="strokeWidth=2;html=1;shape=mxgraph.flowchart.start_2;whiteSpace=wrap;fontSize=13;fillColor=#d5e8d4;strokeColor=#82b366;" parent="Lm2XPd6gxx7g7ctwFzRC-2" vertex="1">
          <mxGeometry x="831.3407344150299" y="336.0133333333334" width="100.76857386848847" height="105.33333333333334" as="geometry" />
        </mxCell>
        <mxCell id="Lm2XPd6gxx7g7ctwFzRC-10" value="&lt;font color=&quot;#006600&quot;&gt;&lt;b&gt;Expansion des infrastructures publiques d&#39;hygiène et communication comportementale&lt;/b&gt;&lt;/font&gt;" style="strokeWidth=2;html=1;shape=mxgraph.flowchart.start_2;whiteSpace=wrap;fontSize=13;fillColor=#d5e8d4;strokeColor=#82b366;" parent="Lm2XPd6gxx7g7ctwFzRC-2" vertex="1">
          <mxGeometry x="982.4935952177626" y="342.33333333333337" width="105.8070025619129" height="100.06666666666666" as="geometry" />
        </mxCell>
        <mxCell id="Lm2XPd6gxx7g7ctwFzRC-11" value="&lt;font color=&quot;#994c00&quot;&gt;&lt;b&gt;MHA&lt;/b&gt;&lt;/font&gt;" style="strokeWidth=2;html=1;shape=mxgraph.flowchart.decision;whiteSpace=wrap;fontSize=13;strokeColor=#d79b00;fillColor=#ffe6cc;" parent="Lm2XPd6gxx7g7ctwFzRC-2" vertex="1">
          <mxGeometry x="15.115286080273275" y="584.6000000000001" width="100.76857386848847" height="110.60000000000001" as="geometry" />
        </mxCell>
        <mxCell id="Lm2XPd6gxx7g7ctwFzRC-12" value="&lt;b&gt;&lt;font color=&quot;#994c00&quot;&gt;ME/LCD&lt;span style=&quot;font-family: monospace ; font-size: 0px&quot;&gt;%3CmxGraphModel%3E%3Croot%3E%3CmxCell%20id%3D%220%22%2F%3E%3CmxCell%20id%3D%221%22%20parent%3D%220%22%2F%3E%3CmxCell%20id%3D%222%22%20value%3D%22MH%22%20style%3D%22strokeWidth%3D2%3Bhtml%3D1%3Bshape%3Dmxgraph.flowchart.decision%3BwhiteSpace%3Dwrap%3BfontSize%3D13%3B%22%20vertex%3D%221%22%20parent%3D%221%22%3E%3CmxGeometry%20x%3D%2270%22%20y%3D%22660%22%20width%3D%22100%22%20height%3D%22100%22%20as%3D%22geometry%22%2F%3E%3C%2FmxCell%3E%3C%2Froot%3E%3C%2FmxGraphModel%3E&lt;/span&gt;&lt;/font&gt;&lt;/b&gt;" style="strokeWidth=2;html=1;shape=mxgraph.flowchart.decision;whiteSpace=wrap;fontSize=13;strokeColor=#d79b00;fillColor=#ffe6cc;" parent="Lm2XPd6gxx7g7ctwFzRC-2" vertex="1">
          <mxGeometry x="181.38343296327926" y="581.9666666666667" width="100.76857386848847" height="105.33333333333334" as="geometry" />
        </mxCell>
        <mxCell id="Lm2XPd6gxx7g7ctwFzRC-13" value="" style="endArrow=classic;html=1;fontSize=13;" parent="Lm2XPd6gxx7g7ctwFzRC-2" edge="1">
          <mxGeometry width="50" height="50" relative="1" as="geometry">
            <mxPoint x="64.49188727583262" y="584.6000000000001" as="sourcePoint" />
            <mxPoint x="64.82442356959864" y="447.6666666666667" as="targetPoint" />
          </mxGeometry>
        </mxCell>
        <mxCell id="Lm2XPd6gxx7g7ctwFzRC-14" value="&lt;font color=&quot;#994c00&quot;&gt;&lt;b&gt;MAG&lt;/b&gt;&lt;/font&gt;" style="strokeWidth=2;html=1;shape=mxgraph.flowchart.decision;whiteSpace=wrap;fontSize=13;strokeColor=#d79b00;fillColor=#ffe6cc;" parent="Lm2XPd6gxx7g7ctwFzRC-2" vertex="1">
          <mxGeometry x="331.2766865926559" y="581.9666666666667" width="100.76857386848847" height="105.33333333333334" as="geometry" />
        </mxCell>
        <mxCell id="Lm2XPd6gxx7g7ctwFzRC-15" value="&lt;b&gt;&lt;font color=&quot;#994c00&quot;&gt;MHA&lt;/font&gt;&lt;/b&gt;" style="strokeWidth=2;html=1;shape=mxgraph.flowchart.decision;whiteSpace=wrap;fontSize=13;strokeColor=#d79b00;fillColor=#ffe6cc;" parent="Lm2XPd6gxx7g7ctwFzRC-2" vertex="1">
          <mxGeometry x="831.3407344150299" y="579.3333333333334" width="100.76857386848847" height="110.60000000000001" as="geometry" />
        </mxCell>
        <mxCell id="Lm2XPd6gxx7g7ctwFzRC-16" value="&lt;font color=&quot;#994c00&quot;&gt;MSP&amp;nbsp; &amp;amp;&amp;nbsp;&lt;br&gt;&amp;nbsp;ME&amp;nbsp;&lt;/font&gt;" style="strokeWidth=2;html=1;shape=mxgraph.flowchart.decision;whiteSpace=wrap;fontSize=13;dashed=1;strokeColor=#FFB570;gradientColor=#FFE4C9;" parent="Lm2XPd6gxx7g7ctwFzRC-2" vertex="1">
          <mxGeometry x="1073.1853116994023" y="599.2" width="100.76857386848847" height="105.33333333333334" as="geometry" />
        </mxCell>
        <mxCell id="Lm2XPd6gxx7g7ctwFzRC-17" value="&lt;font color=&quot;#994c00&quot;&gt;&lt;b&gt;MHA&lt;/b&gt;&lt;/font&gt;" style="strokeWidth=2;html=1;shape=mxgraph.flowchart.decision;whiteSpace=wrap;fontSize=13;strokeColor=#d79b00;fillColor=#ffe6cc;direction=south;" parent="Lm2XPd6gxx7g7ctwFzRC-2" vertex="1">
          <mxGeometry x="979.9743808710505" y="584.6000000000001" width="105.8070025619129" height="105.33333333333334" as="geometry" />
        </mxCell>
        <mxCell id="Lm2XPd6gxx7g7ctwFzRC-18" value="&lt;font color=&quot;#994c00&quot;&gt;MPF/PE&amp;nbsp;&lt;/font&gt;" style="strokeWidth=2;html=1;shape=mxgraph.flowchart.decision;whiteSpace=wrap;fontSize=13;dashed=1;strokeColor=#d79b00;fillColor=#ffe6cc;gradientColor=#ffffff;" parent="Lm2XPd6gxx7g7ctwFzRC-2" vertex="1">
          <mxGeometry x="1046.9854824935953" y="512.4" width="100.76857386848847" height="110.60000000000001" as="geometry" />
        </mxCell>
        <mxCell id="Lm2XPd6gxx7g7ctwFzRC-19" value="" style="endArrow=classic;html=1;fontSize=13;" parent="Lm2XPd6gxx7g7ctwFzRC-2" edge="1">
          <mxGeometry width="50" height="50" relative="1" as="geometry">
            <mxPoint x="381.91289496157134" y="584.6000000000001" as="sourcePoint" />
            <mxPoint x="382.2454312553373" y="443.4533333333333" as="targetPoint" />
          </mxGeometry>
        </mxCell>
        <mxCell id="Lm2XPd6gxx7g7ctwFzRC-20" value="" style="endArrow=classic;html=1;fontSize=13;" parent="Lm2XPd6gxx7g7ctwFzRC-2" edge="1">
          <mxGeometry width="50" height="50" relative="1" as="geometry">
            <mxPoint x="230.7600341588386" y="584.6000000000001" as="sourcePoint" />
            <mxPoint x="230.7600341588386" y="442.40000000000003" as="targetPoint" />
          </mxGeometry>
        </mxCell>
        <mxCell id="Lm2XPd6gxx7g7ctwFzRC-21" value="" style="group" parent="Lm2XPd6gxx7g7ctwFzRC-2" vertex="1" connectable="0">
          <mxGeometry x="619.7267292912042" y="336.0133333333334" width="203.55251921434672" height="349.18" as="geometry" />
        </mxCell>
        <mxCell id="Lm2XPd6gxx7g7ctwFzRC-22" value="&lt;font color=&quot;#006600&quot;&gt;&lt;b&gt;Expansion des services de développement rural&lt;/b&gt;&lt;/font&gt;" style="strokeWidth=2;html=1;shape=mxgraph.flowchart.start_2;whiteSpace=wrap;fontSize=13;fillColor=#d5e8d4;strokeColor=#82b366;" parent="Lm2XPd6gxx7g7ctwFzRC-21" vertex="1">
          <mxGeometry x="52.399658411614006" width="100.76857386848847" height="105.33333333333334" as="geometry" />
        </mxCell>
        <mxCell id="Lm2XPd6gxx7g7ctwFzRC-23" value="&lt;b&gt;&lt;font color=&quot;#994c00&quot;&gt;MAG&lt;/font&gt;&lt;/b&gt;" style="strokeWidth=2;html=1;shape=mxgraph.flowchart.decision;whiteSpace=wrap;fontSize=13;strokeColor=#d79b00;fillColor=#ffe6cc;" parent="Lm2XPd6gxx7g7ctwFzRC-21" vertex="1">
          <mxGeometry x="102.78394534585824" y="242.26666666666668" width="100.76857386848847" height="105.33333333333334" as="geometry" />
        </mxCell>
        <mxCell id="Lm2XPd6gxx7g7ctwFzRC-24" value="&lt;font color=&quot;#994c00&quot;&gt;&lt;b&gt;MEL&lt;/b&gt;&lt;/font&gt;" style="strokeWidth=2;html=1;shape=mxgraph.flowchart.decision;whiteSpace=wrap;fontSize=13;strokeColor=#d79b00;fillColor=#ffe6cc;" parent="Lm2XPd6gxx7g7ctwFzRC-21" vertex="1">
          <mxGeometry y="243.8466666666667" width="100.76857386848847" height="105.33333333333334" as="geometry" />
        </mxCell>
        <mxCell id="Lm2XPd6gxx7g7ctwFzRC-25" value="" style="strokeWidth=1;html=1;shape=mxgraph.flowchart.annotation_2;align=left;labelPosition=right;pointerEvents=1;fontSize=13;rotation=90;" parent="Lm2XPd6gxx7g7ctwFzRC-21" vertex="1">
          <mxGeometry x="34.76515798462852" y="116.53026666666666" width="136.03757472245945" height="109.28333333333333" as="geometry" />
        </mxCell>
        <mxCell id="Lm2XPd6gxx7g7ctwFzRC-26" value="" style="endArrow=classic;html=1;" parent="Lm2XPd6gxx7g7ctwFzRC-21" edge="1">
          <mxGeometry width="50" height="50" relative="1" as="geometry">
            <mxPoint x="102.78394534585824" y="171.69333333333333" as="sourcePoint" />
            <mxPoint x="102.78394534585824" y="99.01333333333334" as="targetPoint" />
          </mxGeometry>
        </mxCell>
        <mxCell id="Lm2XPd6gxx7g7ctwFzRC-27" value="" style="endArrow=classic;html=1;fontSize=13;" parent="Lm2XPd6gxx7g7ctwFzRC-2" edge="1">
          <mxGeometry width="50" height="50" relative="1" as="geometry">
            <mxPoint x="876.0114432109308" y="579.3333333333334" as="sourcePoint" />
            <mxPoint x="876.3439795046967" y="438.1866666666667" as="targetPoint" />
          </mxGeometry>
        </mxCell>
        <mxCell id="Lm2XPd6gxx7g7ctwFzRC-28" value="" style="endArrow=classic;html=1;fontSize=13;" parent="Lm2XPd6gxx7g7ctwFzRC-2" edge="1">
          <mxGeometry width="50" height="50" relative="1" as="geometry">
            <mxPoint x="1034.7219470538002" y="579.3333333333334" as="sourcePoint" />
            <mxPoint x="1035.054483347566" y="438.1866666666667" as="targetPoint" />
          </mxGeometry>
        </mxCell>
        <mxCell id="Lm2XPd6gxx7g7ctwFzRC-29" value="" style="endArrow=classic;html=1;exitX=0;exitY=1;exitDx=0;exitDy=0;strokeWidth=3;strokeColor=#6c8ebf;fillColor=#dae8fc;" parent="Lm2XPd6gxx7g7ctwFzRC-2" source="Lm2XPd6gxx7g7ctwFzRC-3" edge="1">
          <mxGeometry width="50" height="50" relative="1" as="geometry">
            <mxPoint x="544.1502988898378" y="384.46666666666664" as="sourcePoint" />
            <mxPoint x="90.69171648163963" y="331.8" as="targetPoint" />
          </mxGeometry>
        </mxCell>
        <mxCell id="Lm2XPd6gxx7g7ctwFzRC-30" value="" style="endArrow=classic;html=1;exitX=0.462;exitY=1.049;exitDx=0;exitDy=0;exitPerimeter=0;strokeWidth=3;strokeColor=#6c8ebf;fillColor=#dae8fc;" parent="Lm2XPd6gxx7g7ctwFzRC-2" source="Lm2XPd6gxx7g7ctwFzRC-3" edge="1">
          <mxGeometry width="50" height="50" relative="1" as="geometry">
            <mxPoint x="241.84457728437235" y="237.00000000000003" as="sourcePoint" />
            <mxPoint x="241.84457728437235" y="331.8" as="targetPoint" />
          </mxGeometry>
        </mxCell>
        <mxCell id="Lm2XPd6gxx7g7ctwFzRC-31" value="" style="endArrow=classic;html=1;exitX=1;exitY=1;exitDx=0;exitDy=0;entryX=0.59;entryY=-0.003;entryDx=0;entryDy=0;entryPerimeter=0;strokeWidth=3;fillColor=#dae8fc;strokeColor=#6c8ebf;" parent="Lm2XPd6gxx7g7ctwFzRC-2" source="Lm2XPd6gxx7g7ctwFzRC-3" target="Lm2XPd6gxx7g7ctwFzRC-8" edge="1">
          <mxGeometry width="50" height="50" relative="1" as="geometry">
            <mxPoint x="544.1502988898378" y="384.46666666666664" as="sourcePoint" />
            <mxPoint x="594.534585824082" y="331.8" as="targetPoint" />
          </mxGeometry>
        </mxCell>
        <mxCell id="Lm2XPd6gxx7g7ctwFzRC-32" value="" style="endArrow=classic;html=1;exitX=0.573;exitY=1.018;exitDx=0;exitDy=0;exitPerimeter=0;strokeWidth=3;strokeColor=#82b366;fillColor=#d5e8d4;" parent="Lm2XPd6gxx7g7ctwFzRC-2" source="Lm2XPd6gxx7g7ctwFzRC-4" edge="1">
          <mxGeometry width="50" height="50" relative="1" as="geometry">
            <mxPoint x="876.68659265585" y="232.4443333333333" as="sourcePoint" />
            <mxPoint x="879.6894961571307" y="336.0133333333334" as="targetPoint" />
          </mxGeometry>
        </mxCell>
        <mxCell id="Lm2XPd6gxx7g7ctwFzRC-33" value="" style="endArrow=classic;html=1;entryX=0.59;entryY=-0.003;entryDx=0;entryDy=0;entryPerimeter=0;strokeWidth=3;strokeColor=#82b366;fillColor=#d5e8d4;" parent="Lm2XPd6gxx7g7ctwFzRC-2" edge="1">
          <mxGeometry width="50" height="50" relative="1" as="geometry">
            <mxPoint x="965.3629376601195" y="218.04000000000002" as="sourcePoint" />
            <mxPoint x="1012.7241673783092" y="345.17733333333337" as="targetPoint" />
          </mxGeometry>
        </mxCell>
        <mxCell id="Lm2XPd6gxx7g7ctwFzRC-34" value="" style="endArrow=classic;html=1;exitX=0;exitY=1;exitDx=0;exitDy=0;strokeWidth=3;strokeColor=#82b366;fillColor=#d5e8d4;" parent="Lm2XPd6gxx7g7ctwFzRC-2" edge="1">
          <mxGeometry width="50" height="50" relative="1" as="geometry">
            <mxPoint x="775.9180187873612" y="228.57333333333332" as="sourcePoint" />
            <mxPoint x="740.6490179333903" y="336.0133333333334" as="targetPoint" />
          </mxGeometry>
        </mxCell>
        <mxCell id="Lm2XPd6gxx7g7ctwFzRC-35" value="&lt;font color=&quot;#00331a&quot; style=&quot;font-size: 18px&quot;&gt;&lt;b&gt;La coordination multi-sectorielle et la participation communautaire sont assurées par les institutions GIRE au niveau local&amp;nbsp; -&amp;nbsp;&amp;nbsp;(AUE, CLE et Agences des sous-bassins)&lt;/b&gt;&lt;/font&gt;" style="rounded=1;arcSize=50;whiteSpace=wrap;html=1;align=center;strokeWidth=1;fillColor=#E6FFCC;strokeColor=#E6FFCC;" parent="Lm2XPd6gxx7g7ctwFzRC-2" vertex="1">
          <mxGeometry x="60" y="726.64" width="1108" height="42.13" as="geometry" />
        </mxCell>
        <mxCell id="Lm2XPd6gxx7g7ctwFzRC-40" value="" style="shape=partialRectangle;whiteSpace=wrap;html=1;top=0;left=0;fillColor=none;strokeColor=#000000;strokeWidth=1;opacity=0;" parent="Lm2XPd6gxx7g7ctwFzRC-2" vertex="1">
          <mxGeometry x="498.804440649018" y="363.40000000000003" width="120.92228864218617" height="63.2" as="geometry" />
        </mxCell>
        <mxCell id="Lm2XPd6gxx7g7ctwFzRC-41" value="" style="shape=partialRectangle;whiteSpace=wrap;html=1;bottom=0;right=0;fillColor=none;strokeColor=#000000;strokeWidth=4;opacity=0;rotation=90;" parent="Lm2XPd6gxx7g7ctwFzRC-2" vertex="1">
          <mxGeometry x="-30.23057216054654" y="410.8" width="120.92228864218617" height="63.2" as="geometry" />
        </mxCell>
        <mxCell id="Lm2XPd6gxx7g7ctwFzRC-42" value="" style="shape=partialRectangle;whiteSpace=wrap;html=1;bottom=0;right=0;fillColor=none;strokeColor=#000000;strokeWidth=4;opacity=0;" parent="Lm2XPd6gxx7g7ctwFzRC-2" vertex="1">
          <mxGeometry x="498.804440649018" y="363.40000000000003" width="120.92228864218617" height="63.2" as="geometry" />
        </mxCell>
        <mxCell id="Lm2XPd6gxx7g7ctwFzRC-43" value="&lt;font style=&quot;font-size: 26px&quot; color=&quot;#000066&quot;&gt;Cabinet du Premier Ministre - Ministère du Plan&amp;nbsp;&amp;nbsp;&lt;br&gt;PISEN&lt;br&gt;&lt;/font&gt;" style="rounded=1;whiteSpace=wrap;html=1;fontSize=10;strokeWidth=1;fillColor=#cce5ff;strokeColor=#000066;" parent="Lm2XPd6gxx7g7ctwFzRC-2" vertex="1">
          <mxGeometry x="287.19043552519213" width="574.3808710503843" height="94.80000000000001" as="geometry" />
        </mxCell>
        <mxCell id="dxMDo8O3Vc4avQ2AAc4b-0" value="" style="strokeWidth=2;html=1;shape=mxgraph.flowchart.annotation_2;align=left;labelPosition=right;pointerEvents=1;fontSize=13;rotation=-90;strokeColor=#00331A;" parent="Lm2XPd6gxx7g7ctwFzRC-1" vertex="1">
          <mxGeometry x="591.03" y="226.97" width="57.8" height="1049.8" as="geometry" />
        </mxCell>
      </root>
    </mxGraphModel>
  </diagram>
  <diagram id="IblWUgzefRpmwI1DseKD" name="Page-3">
    <mxGraphModel dx="2719" dy="1178" grid="1" gridSize="10" guides="1" tooltips="1" connect="1" arrows="1" fold="1" page="1" pageScale="1" pageWidth="827" pageHeight="1169" math="0" shadow="0">
      <root>
        <mxCell id="l6ozzNhGd39se8w08DKl-0" />
        <mxCell id="l6ozzNhGd39se8w08DKl-1" parent="l6ozzNhGd39se8w08DKl-0" />
        <mxCell id="f8_f8fX2Aa9xfWMqRUkL-0" value="" style="group;fillColor=#ffffff;strokeWidth=5;strokeColor=#00331A;" vertex="1" connectable="0" parent="l6ozzNhGd39se8w08DKl-1">
          <mxGeometry x="-294" y="50" width="1171" height="750" as="geometry" />
        </mxCell>
        <mxCell id="f8_f8fX2Aa9xfWMqRUkL-1" value="" style="shape=partialRectangle;whiteSpace=wrap;html=1;bottom=0;right=0;fillColor=none;strokeColor=#000000;strokeWidth=4;opacity=0;rotation=90;" vertex="1" parent="f8_f8fX2Aa9xfWMqRUkL-0">
          <mxGeometry x="-29.999999999999996" y="390" width="120" height="60" as="geometry" />
        </mxCell>
        <mxCell id="f8_f8fX2Aa9xfWMqRUkL-2" value="" style="group" vertex="1" connectable="0" parent="f8_f8fX2Aa9xfWMqRUkL-0">
          <mxGeometry x="617" y="309" width="212" height="331.5" as="geometry" />
        </mxCell>
        <mxCell id="f8_f8fX2Aa9xfWMqRUkL-3" value="" style="endArrow=classic;html=1;" edge="1" parent="f8_f8fX2Aa9xfWMqRUkL-2">
          <mxGeometry width="50" height="50" relative="1" as="geometry">
            <mxPoint x="112.00191238581647" y="113.02999999999997" as="sourcePoint" />
            <mxPoint x="111.7" y="120" as="targetPoint" />
          </mxGeometry>
        </mxCell>
        <mxCell id="f8_f8fX2Aa9xfWMqRUkL-4" value="&lt;b style=&quot;color: rgb(0 , 102 , 0)&quot;&gt;Expansion des services de développement rural&lt;/b&gt;" style="strokeWidth=2;html=1;shape=mxgraph.flowchart.start_2;whiteSpace=wrap;fontSize=13;fillColor=#d5e8d4;strokeColor=#82b366;" vertex="1" parent="f8_f8fX2Aa9xfWMqRUkL-2">
          <mxGeometry x="49.5" width="120" height="120" as="geometry" />
        </mxCell>
        <mxCell id="f8_f8fX2Aa9xfWMqRUkL-5" value="" style="endArrow=classic;html=1;fontSize=13;exitX=0.48;exitY=0.518;exitDx=0;exitDy=0;exitPerimeter=0;" edge="1" parent="f8_f8fX2Aa9xfWMqRUkL-2" source="f8_f8fX2Aa9xfWMqRUkL-27">
          <mxGeometry width="50" height="50" relative="1" as="geometry">
            <mxPoint x="105.5800000000001" y="213.25" as="sourcePoint" />
            <mxPoint x="105.41000000000003" y="118.25" as="targetPoint" />
          </mxGeometry>
        </mxCell>
        <mxCell id="f8_f8fX2Aa9xfWMqRUkL-6" value="" style="group" vertex="1" connectable="0" parent="f8_f8fX2Aa9xfWMqRUkL-0">
          <mxGeometry x="15" width="1135" height="729" as="geometry" />
        </mxCell>
        <mxCell id="f8_f8fX2Aa9xfWMqRUkL-7" value="&lt;b style=&quot;color: rgb(0 , 102 , 204)&quot;&gt;Composante 1: Investissements intégrés pour la sécurité en eau&lt;/b&gt;" style="rounded=1;arcSize=10;whiteSpace=wrap;html=1;align=center;fontSize=13;fillColor=#dae8fc;strokeColor=#000066;" vertex="1" parent="f8_f8fX2Aa9xfWMqRUkL-6">
          <mxGeometry x="125" y="138" width="210" height="75" as="geometry" />
        </mxCell>
        <mxCell id="f8_f8fX2Aa9xfWMqRUkL-8" value="&lt;b style=&quot;color: rgb(0 , 102 , 0)&quot;&gt;Composante 2: Expansion des services intégrés liés à l&#39;eau&amp;nbsp;&lt;/b&gt;" style="rounded=1;arcSize=10;whiteSpace=wrap;html=1;align=center;fontSize=13;fillColor=#d5e8d4;strokeColor=#00331A;" vertex="1" parent="f8_f8fX2Aa9xfWMqRUkL-6">
          <mxGeometry x="735" y="139" width="210" height="75" as="geometry" />
        </mxCell>
        <mxCell id="f8_f8fX2Aa9xfWMqRUkL-9" value="" style="strokeWidth=2;html=1;shape=mxgraph.flowchart.annotation_2;align=left;labelPosition=right;pointerEvents=1;fontSize=13;rotation=90;strokeColor=#000066;" vertex="1" parent="f8_f8fX2Aa9xfWMqRUkL-6">
          <mxGeometry x="508.75" y="-183" width="50" height="592.5" as="geometry" />
        </mxCell>
        <mxCell id="f8_f8fX2Aa9xfWMqRUkL-10" value="&lt;b style=&quot;color: rgb(0 , 102 , 0)&quot;&gt;Expansion des infrastructures publiques d&#39;hygiène et communication comportementale&lt;/b&gt;" style="strokeWidth=2;html=1;shape=mxgraph.flowchart.start_2;whiteSpace=wrap;fontSize=13;fillColor=#d5e8d4;strokeColor=#82b366;" vertex="1" parent="f8_f8fX2Aa9xfWMqRUkL-6">
          <mxGeometry x="957.5" y="310" width="120" height="120" as="geometry" />
        </mxCell>
        <mxCell id="f8_f8fX2Aa9xfWMqRUkL-11" value="&lt;font color=&quot;#994c00&quot;&gt;MSP &amp;amp; ME&lt;/font&gt;" style="strokeWidth=2;html=1;shape=mxgraph.flowchart.decision;whiteSpace=wrap;fontSize=13;dashed=1;strokeColor=#FFB570;gradientColor=#FFE4C9;" vertex="1" parent="f8_f8fX2Aa9xfWMqRUkL-6">
          <mxGeometry x="1050" y="531" width="85" height="100" as="geometry" />
        </mxCell>
        <mxCell id="f8_f8fX2Aa9xfWMqRUkL-12" value="&lt;font color=&quot;#994c00&quot;&gt;MPF/PE&lt;/font&gt;" style="strokeWidth=2;html=1;shape=mxgraph.flowchart.decision;whiteSpace=wrap;fontSize=13;dashed=1;strokeColor=#d79b00;fillColor=#ffe6cc;gradientColor=#ffffff;" vertex="1" parent="f8_f8fX2Aa9xfWMqRUkL-6">
          <mxGeometry x="1024" y="462" width="71" height="105" as="geometry" />
        </mxCell>
        <mxCell id="f8_f8fX2Aa9xfWMqRUkL-13" value="" style="endArrow=classic;html=1;exitX=0;exitY=1;exitDx=0;exitDy=0;strokeWidth=3;strokeColor=#6c8ebf;fillColor=#dae8fc;entryX=0.667;entryY=-0.05;entryDx=0;entryDy=0;entryPerimeter=0;" edge="1" parent="f8_f8fX2Aa9xfWMqRUkL-6" source="f8_f8fX2Aa9xfWMqRUkL-7" target="f8_f8fX2Aa9xfWMqRUkL-22">
          <mxGeometry width="50" height="50" relative="1" as="geometry">
            <mxPoint x="525" y="365" as="sourcePoint" />
            <mxPoint x="75" y="315" as="targetPoint" />
          </mxGeometry>
        </mxCell>
        <mxCell id="f8_f8fX2Aa9xfWMqRUkL-14" value="" style="endArrow=classic;html=1;exitX=0.462;exitY=1.049;exitDx=0;exitDy=0;exitPerimeter=0;strokeWidth=3;strokeColor=#6c8ebf;fillColor=#dae8fc;" edge="1" parent="f8_f8fX2Aa9xfWMqRUkL-6">
          <mxGeometry width="50" height="50" relative="1" as="geometry">
            <mxPoint x="227.01999999999998" y="216.67499999999995" as="sourcePoint" />
            <mxPoint x="230" y="315" as="targetPoint" />
          </mxGeometry>
        </mxCell>
        <mxCell id="f8_f8fX2Aa9xfWMqRUkL-15" value="" style="endArrow=classic;html=1;exitX=1;exitY=1;exitDx=0;exitDy=0;strokeWidth=3;fillColor=#dae8fc;strokeColor=#6c8ebf;" edge="1" parent="f8_f8fX2Aa9xfWMqRUkL-6" source="f8_f8fX2Aa9xfWMqRUkL-7">
          <mxGeometry width="50" height="50" relative="1" as="geometry">
            <mxPoint x="525" y="365" as="sourcePoint" />
            <mxPoint x="374" y="310" as="targetPoint" />
          </mxGeometry>
        </mxCell>
        <mxCell id="f8_f8fX2Aa9xfWMqRUkL-16" value="" style="endArrow=classic;html=1;strokeWidth=3;strokeColor=#82b366;fillColor=#d5e8d4;" edge="1" parent="f8_f8fX2Aa9xfWMqRUkL-6">
          <mxGeometry width="50" height="50" relative="1" as="geometry">
            <mxPoint x="943" y="213.3" as="sourcePoint" />
            <mxPoint x="993" y="302" as="targetPoint" />
          </mxGeometry>
        </mxCell>
        <mxCell id="f8_f8fX2Aa9xfWMqRUkL-17" value="" style="endArrow=classic;html=1;strokeWidth=3;strokeColor=#82b366;fillColor=#d5e8d4;" edge="1" parent="f8_f8fX2Aa9xfWMqRUkL-6">
          <mxGeometry width="50" height="50" relative="1" as="geometry">
            <mxPoint x="740" y="214" as="sourcePoint" />
            <mxPoint x="705" y="300" as="targetPoint" />
          </mxGeometry>
        </mxCell>
        <mxCell id="f8_f8fX2Aa9xfWMqRUkL-18" value="&lt;span style=&quot;color: rgb(0 , 51 , 26)&quot;&gt;&lt;font size=&quot;1&quot;&gt;&lt;b style=&quot;font-size: 23px&quot;&gt;La coordination multi-sectorielle et la participation communautaire sont assurées par les institutions GIRE au niveau local&amp;nbsp; -&amp;nbsp;&amp;nbsp;(AUE, CLE et Agences des sous-bassins)&lt;/b&gt;&lt;/font&gt;&lt;/span&gt;" style="rounded=1;arcSize=10;whiteSpace=wrap;html=1;align=center;strokeWidth=1;fillColor=#cdeb8b;strokeColor=#36393d;" vertex="1" parent="f8_f8fX2Aa9xfWMqRUkL-6">
          <mxGeometry x="55" y="669" width="990" height="60" as="geometry" />
        </mxCell>
        <mxCell id="f8_f8fX2Aa9xfWMqRUkL-19" value="&lt;font style=&quot;font-size: 27px&quot; color=&quot;#000066&quot;&gt;&lt;b&gt;&amp;nbsp;UGP - Cabinet&amp;nbsp; du Premier Ministre&amp;nbsp;&lt;br&gt;PISEN&lt;br&gt;&lt;/b&gt;&lt;/font&gt;" style="rounded=1;whiteSpace=wrap;html=1;fontSize=10;strokeWidth=1;fillColor=#cce5ff;strokeColor=#000066;" vertex="1" parent="f8_f8fX2Aa9xfWMqRUkL-6">
          <mxGeometry x="270" width="705" height="90" as="geometry" />
        </mxCell>
        <mxCell id="f8_f8fX2Aa9xfWMqRUkL-20" value="" style="endArrow=classic;html=1;fontSize=13;exitX=0.5;exitY=0;exitDx=0;exitDy=0;exitPerimeter=0;" edge="1" parent="f8_f8fX2Aa9xfWMqRUkL-6">
          <mxGeometry width="50" height="50" relative="1" as="geometry">
            <mxPoint x="227" y="539.5" as="sourcePoint" />
            <mxPoint x="227.9999999999999" y="436" as="targetPoint" />
          </mxGeometry>
        </mxCell>
        <mxCell id="f8_f8fX2Aa9xfWMqRUkL-21" value="&lt;b&gt;&lt;font color=&quot;#0066cc&quot;&gt;Mobilisation des ressources en eau&lt;/font&gt;&lt;/b&gt;" style="strokeWidth=2;html=1;shape=mxgraph.flowchart.start_2;whiteSpace=wrap;fontSize=13;fillColor=#cce5ff;strokeColor=#A9C4EB;" vertex="1" parent="f8_f8fX2Aa9xfWMqRUkL-6">
          <mxGeometry x="313.75" y="319" width="120" height="120" as="geometry" />
        </mxCell>
        <mxCell id="f8_f8fX2Aa9xfWMqRUkL-22" value="&lt;b style=&quot;color: rgb(0 , 102 , 204)&quot;&gt;Gestion des ressources en eau et des risques climatiques&lt;/b&gt;" style="strokeWidth=2;html=1;shape=mxgraph.flowchart.start_2;whiteSpace=wrap;fontSize=13;fillColor=#CCE5FF;strokeColor=#A9C4EB;" vertex="1" parent="f8_f8fX2Aa9xfWMqRUkL-6">
          <mxGeometry y="310" width="120" height="120" as="geometry" />
        </mxCell>
        <mxCell id="f8_f8fX2Aa9xfWMqRUkL-23" value="&lt;b&gt;&lt;font color=&quot;#0066cc&quot;&gt;Restauration des bassins versants&lt;/font&gt;&lt;/b&gt;" style="strokeWidth=2;html=1;shape=mxgraph.flowchart.start_2;whiteSpace=wrap;fontSize=13;fillColor=#cce5ff;strokeColor=#A9C4EB;" vertex="1" parent="f8_f8fX2Aa9xfWMqRUkL-6">
          <mxGeometry x="168" y="315" width="120" height="120" as="geometry" />
        </mxCell>
        <mxCell id="f8_f8fX2Aa9xfWMqRUkL-24" value="" style="strokeWidth=1;html=1;shape=mxgraph.flowchart.annotation_2;align=left;labelPosition=right;pointerEvents=1;fontSize=13;rotation=90;" vertex="1" parent="f8_f8fX2Aa9xfWMqRUkL-6">
          <mxGeometry x="814" y="450" width="113" height="70.43" as="geometry" />
        </mxCell>
        <mxCell id="f8_f8fX2Aa9xfWMqRUkL-25" value="&lt;b&gt;&lt;font color=&quot;#994c00&quot;&gt;MAG&lt;/font&gt;&lt;/b&gt;" style="strokeWidth=2;html=1;shape=mxgraph.flowchart.decision;whiteSpace=wrap;fontSize=13;strokeColor=#d79b00;fillColor=#ffe6cc;" vertex="1" parent="f8_f8fX2Aa9xfWMqRUkL-6">
          <mxGeometry x="711" y="542.5" width="66" height="77" as="geometry" />
        </mxCell>
        <mxCell id="f8_f8fX2Aa9xfWMqRUkL-26" value="&lt;b&gt;&lt;font color=&quot;#994c00&quot;&gt;MEL&lt;/font&gt;&lt;/b&gt;" style="strokeWidth=2;html=1;shape=mxgraph.flowchart.decision;whiteSpace=wrap;fontSize=13;strokeColor=#d79b00;fillColor=#ffe6cc;" vertex="1" parent="f8_f8fX2Aa9xfWMqRUkL-6">
          <mxGeometry x="637" y="541.5" width="70" height="77" as="geometry" />
        </mxCell>
        <mxCell id="f8_f8fX2Aa9xfWMqRUkL-27" value="" style="strokeWidth=1;html=1;shape=mxgraph.flowchart.annotation_2;align=left;labelPosition=right;pointerEvents=1;fontSize=13;rotation=90;" vertex="1" parent="f8_f8fX2Aa9xfWMqRUkL-6">
          <mxGeometry x="651.5" y="450" width="113" height="70.43" as="geometry" />
        </mxCell>
        <mxCell id="f8_f8fX2Aa9xfWMqRUkL-28" value="&lt;b&gt;&lt;font color=&quot;#994c00&quot;&gt;MHA&lt;/font&gt;&lt;/b&gt;" style="strokeWidth=2;html=1;shape=mxgraph.flowchart.decision;whiteSpace=wrap;fontSize=13;strokeColor=#d79b00;fillColor=#ffe6cc;" vertex="1" parent="f8_f8fX2Aa9xfWMqRUkL-6">
          <mxGeometry x="989" y="538.5" width="66" height="77" as="geometry" />
        </mxCell>
        <mxCell id="f8_f8fX2Aa9xfWMqRUkL-29" value="&lt;b&gt;&lt;font color=&quot;#994c00&quot;&gt;MAG&lt;/font&gt;&lt;/b&gt;" style="strokeWidth=2;html=1;shape=mxgraph.flowchart.decision;whiteSpace=wrap;fontSize=13;strokeColor=#d79b00;fillColor=#ffe6cc;" vertex="1" parent="f8_f8fX2Aa9xfWMqRUkL-6">
          <mxGeometry x="343.75" y="539.5" width="70" height="77" as="geometry" />
        </mxCell>
        <mxCell id="f8_f8fX2Aa9xfWMqRUkL-30" value="&lt;b&gt;&lt;font color=&quot;#994c00&quot;&gt;ME/LCD&lt;/font&gt;&lt;/b&gt;" style="strokeWidth=2;html=1;shape=mxgraph.flowchart.decision;whiteSpace=wrap;fontSize=13;strokeColor=#d79b00;fillColor=#ffe6cc;" vertex="1" parent="f8_f8fX2Aa9xfWMqRUkL-6">
          <mxGeometry x="192" y="539.5" width="70" height="77" as="geometry" />
        </mxCell>
        <mxCell id="f8_f8fX2Aa9xfWMqRUkL-31" value="" style="endArrow=classic;html=1;fontSize=13;" edge="1" parent="f8_f8fX2Aa9xfWMqRUkL-6">
          <mxGeometry width="50" height="50" relative="1" as="geometry">
            <mxPoint x="870" y="480" as="sourcePoint" />
            <mxPoint x="869.91" y="430" as="targetPoint" />
          </mxGeometry>
        </mxCell>
        <mxCell id="f8_f8fX2Aa9xfWMqRUkL-32" value="" style="endArrow=classic;html=1;strokeWidth=3;strokeColor=#82b366;fillColor=#d5e8d4;" edge="1" parent="f8_f8fX2Aa9xfWMqRUkL-6">
          <mxGeometry width="50" height="50" relative="1" as="geometry">
            <mxPoint x="859" y="213" as="sourcePoint" />
            <mxPoint x="859" y="309" as="targetPoint" />
          </mxGeometry>
        </mxCell>
        <mxCell id="v4191FKCXpuQqEhS7TLO-0" value="" style="strokeWidth=2;html=1;shape=mxgraph.flowchart.annotation_2;align=left;labelPosition=right;pointerEvents=1;fontSize=13;rotation=-90;fillColor=#ffff88;strokeColor=#8C7738;" vertex="1" parent="l6ozzNhGd39se8w08DKl-1">
          <mxGeometry x="239.93" y="210.87" width="49.99" height="962.22" as="geometry" />
        </mxCell>
        <mxCell id="v4191FKCXpuQqEhS7TLO-1" value="&lt;b&gt;&lt;font color=&quot;#994c00&quot;&gt;MHA&lt;/font&gt;&lt;/b&gt;" style="strokeWidth=2;html=1;shape=mxgraph.flowchart.decision;whiteSpace=wrap;fontSize=13;strokeColor=#d79b00;fillColor=#ffe6cc;" vertex="1" parent="l6ozzNhGd39se8w08DKl-1">
          <mxGeometry x="-250" y="585" width="70" height="77" as="geometry" />
        </mxCell>
        <mxCell id="L6wnBIeYzzd9tFvMygRS-0" value="" style="endArrow=classic;html=1;fontSize=13;exitX=0.5;exitY=0;exitDx=0;exitDy=0;exitPerimeter=0;" edge="1" parent="l6ozzNhGd39se8w08DKl-1">
          <mxGeometry width="50" height="50" relative="1" as="geometry">
            <mxPoint x="-215" y="585" as="sourcePoint" />
            <mxPoint x="-216" y="479" as="targetPoint" />
          </mxGeometry>
        </mxCell>
        <mxCell id="dx-lZwPMKIgSUHjNyMP9-0" value="" style="endArrow=classic;html=1;fontSize=13;exitX=0.5;exitY=0;exitDx=0;exitDy=0;exitPerimeter=0;" edge="1" parent="l6ozzNhGd39se8w08DKl-1">
          <mxGeometry width="50" height="50" relative="1" as="geometry">
            <mxPoint x="99.75" y="589.5" as="sourcePoint" />
            <mxPoint x="100.5" y="487" as="targetPoint" />
            <Array as="points" />
          </mxGeometry>
        </mxCell>
        <mxCell id="-3ZoXzMzIzTevR4DWs0n-0" value="&lt;b style=&quot;color: rgb(0 , 102 , 0)&quot;&gt;Expansion des services liés à l&#39;eau&lt;/b&gt;" style="strokeWidth=2;html=1;shape=mxgraph.flowchart.start_2;whiteSpace=wrap;fontSize=13;fillColor=#d5e8d4;strokeColor=#82b366;" vertex="1" parent="l6ozzNhGd39se8w08DKl-1">
          <mxGeometry x="528.5" y="364" width="120" height="120" as="geometry" />
        </mxCell>
        <mxCell id="-3ZoXzMzIzTevR4DWs0n-1" value="&lt;b&gt;&lt;font color=&quot;#994c00&quot;&gt;MHA&lt;/font&gt;&lt;/b&gt;" style="strokeWidth=2;html=1;shape=mxgraph.flowchart.decision;whiteSpace=wrap;fontSize=13;strokeColor=#d79b00;fillColor=#ffe6cc;" vertex="1" parent="l6ozzNhGd39se8w08DKl-1">
          <mxGeometry x="522.5" y="593" width="66" height="77" as="geometry" />
        </mxCell>
        <mxCell id="-3ZoXzMzIzTevR4DWs0n-2" value="&lt;b&gt;&lt;font color=&quot;#994c00&quot;&gt;SPEN&lt;/font&gt;&lt;/b&gt;" style="strokeWidth=2;html=1;shape=mxgraph.flowchart.decision;whiteSpace=wrap;fontSize=13;strokeColor=#d79b00;fillColor=#ffe6cc;" vertex="1" parent="l6ozzNhGd39se8w08DKl-1">
          <mxGeometry x="593" y="593" width="66" height="77" as="geometry" />
        </mxCell>
        <mxCell id="xPB02KelRdcM3AuqK0Vz-0" value="" style="endArrow=classic;html=1;fontSize=13;exitX=0.5;exitY=0;exitDx=0;exitDy=0;exitPerimeter=0;" edge="1" parent="l6ozzNhGd39se8w08DKl-1">
          <mxGeometry width="50" height="50" relative="1" as="geometry">
            <mxPoint x="743" y="588.5" as="sourcePoint" />
            <mxPoint x="745" y="480" as="targetPoint" />
          </mxGeometry>
        </mxCell>
      </root>
    </mxGraphModel>
  </diagram>
</mxfile>
